FILE "psxeg.bin" BINARY
  TRACK 01 MODE2/2352
    INDEX 01 00:00:00
  TRACK 02 AUDIO
    INDEX 00 00:16:21
    INDEX 01 00:18:21
  TRACK 03 AUDIO
    INDEX 00 04:39:02
    INDEX 01 04:41:02
